<svg preserveAspectRatio="none" xmlns="http://www.w3.org/2000/svg" xmlns:xlink="http://www.w3.org/1999/xlink" viewBox="0 0 314 104.6"><defs><style>.a{opacity:0.65}.b{fill:#fff}.f{opacity:0.75}</style><linearGradient id="a" x1="71.91" y1="17.39" x2="288.23" y2="17.39" gradientUnits="userSpaceOnUse"><stop offset="0" stop-color="#a2ca5e"/><stop offset="1" stop-color="#50b54a"/></linearGradient><linearGradient id="b" x1="71.94" y1="90.56" x2="149.78" y2="90.56" xlink:href="#a"/><linearGradient id="c" x1="71.91" y1="55.09" x2="102.29" y2="55.09" gradientUnits="userSpaceOnUse"><stop offset="0" stop-color="#c7d400"/><stop offset="1" stop-color="#ff892a"/></linearGradient></defs><g class="a"><rect class="b" x="194.6" y="27.7" width="74.68" height="19.66" rx="1.42"/></g><g class="a"><rect class="b" x="270.7" y="27.7" width="35.94" height="19.66" rx="1.42"/></g><g class="a"><path class="b" d="M22.8 0a1.4 1.4 0 0 1 1.4 1.4v32.9a1.4 1.4 0 0 1-1.4 1.4H8.7a1.4 1.4 0 0 1-1.4-1.4v-6.6a1.4 1.4 0 0 1 1.4-1.4h5.7a1.4 1.4 0 0 0 1.4-1.4V10.5a1.4 1.4 0 0 0-1.4-1.4H8.7a1.4 1.4 0 0 1-1.5-1.5V1.4A1.4 1.4 0 0 1 8.7 0z"/></g><g class="a"><path class="b" d="M26.6 0a1.4 1.4 0 0 0-1.4 1.4v32.9a1.4 1.4 0 0 0 1.4 1.4h164.7a1.4 1.4 0 0 0 1.4-1.4v-6.7a1.4 1.4 0 0 1 1.4-1.4h105.7a2.5 2.5 0 0 0 2-1.3l12-23.7A.8.8 0 0 0 313 0zM291 17a2.7 2.7 0 0 1-2.1 1.2H192a2.7 2.7 0 0 0-2.1 1.2l-2.5 4.3a2.8 2.8 0 0 1-2.1 1.2h-112a1.4 1.4 0 0 1-1.4-1.4V11.2a1.4 1.4 0 0 1 1.4-1.4h220.3c.8 0 1.1.6.7 1.2z"/></g><path fill="url(#a)" opacity=".85" d="M288.2 9.7l-5.6 8.6h-92l-3.9 6.8H71.9V9.7h216.3z"/><g class="a"><path class="b" d="M26.6 75.7a1.4 1.4 0 0 0-1.4 1.4v26a1.4 1.4 0 0 0 1.4 1.4H188a1.4 1.4 0 0 0 1.4-1.4v-26a1.4 1.4 0 0 0-1.4-1.4zm148.2 18a2.7 2.7 0 0 1-2.1 1.2H73.3a1.4 1.4 0 0 1-1.4-1.4v-5.9a1.4 1.4 0 0 1 1.4-1.4h104.4c.8 0 1 .6.7 1.2z"/></g><g class="a"><path class="b" d="M22.8 41.4a1.4 1.4 0 0 1 1.4 1.4v26.1a1.4 1.4 0 0 1-1.4 1.4H8.7a1.4 1.4 0 0 1-1.5-1.4v-4a1.4 1.4 0 0 1 1.4-1.4h5.7a1.4 1.4 0 0 0 1.4-1.4V48.8a1.4 1.4 0 0 0-1.4-1.4H8.7A1.4 1.4 0 0 1 7.2 46v-3.2a1.4 1.4 0 0 1 1.4-1.4z"/></g><g class="a"><path class="b" d="M22.8 75.7a1.4 1.4 0 0 1 1.4 1.4v26a1.4 1.4 0 0 1-1.4 1.4H8.7a1.4 1.4 0 0 1-1.4-1.4v-4a1.4 1.4 0 0 1 1.4-1.4h5.7a1.4 1.4 0 0 0 1.4-1.4V83.1a1.4 1.4 0 0 0-1.4-1.4H8.7a1.4 1.4 0 0 1-1.4-1.4v-3.2a1.4 1.4 0 0 1 1.4-1.4z"/></g><g class="a"><path class="b" d="M26.6 41.4a1.4 1.4 0 0 0-1.4 1.4v26.1a1.4 1.4 0 0 0 1.4 1.4H188a1.4 1.4 0 0 0 1.4-1.4V42.8a1.4 1.4 0 0 0-1.4-1.4zm148.2 16.8a2.7 2.7 0 0 1-2.1 1.2H73.3A1.4 1.4 0 0 1 72 58v-5.8a1.4 1.4 0 0 1 1.4-1.4h104.3c.8 0 1 .6.7 1.2z"/></g><path fill="url(#b)" opacity=".85" d="M149.8 86.2l-5 8.7H71.9v-8.7h77.9z"/><path fill="url(#c)" opacity=".85" d="M102.3 50.8l-6 8.6H71.9v-8.6h30.4z"/><g class="a"><rect class="b" y="10.3" width="14.47" height="14.47" rx="1.42"/></g><g class="f"><path class="b" d="M36 11.4h1.3v5.7l2-5.7h1.4l-1.6 4.4 1.6 6.8h-1.3l-1-4.5-1 2.7v1.8H36zM41.8 12.2h1.4v1.6h-1.4zm0 2.4h1.4v8h-1.4zM44.3 16.4a1.3 1.3 0 0 1 1-1.2l3-.6V16l-2.6.5v6.1h-1.4zM49.3 12.2h1.4v1.6h-1.4zm0 2.4h1.4v8h-1.4zM51.8 12.2h1.4v2.4h2.6V16h-2.6v5.3h2.6v1.4h-3a1 1 0 0 1-1-1zM56.7 15.6a1 1 0 0 1 1-1h2a1 1 0 0 1 1 1v6a1 1 0 0 1-1 1h-2a1 1 0 0 1-1-1zm2.6 5.7V16h-1.2v5.3z"/></g><g class="f"><path class="b" d="M41.4 49.8a1 1 0 0 1 1-1h4v4.6a1 1 0 0 1-1 1 1 1 0 0 1 1 1V59a1 1 0 0 1-1 1h-4zm2.6 4a.8.8 0 0 0 .8-.8v-2.8h-2v3.5zm.8 5V56a.8.8 0 0 0-.8-.8h-1.2v3.5zM47.2 52h1.4v6.6h1.3V52h1.4v8h-3a1 1 0 0 1-1-1zM52.1 53a1 1 0 0 1 1-1h3v8.6a1.3 1.3 0 0 1-1 1.2l-3 .6V61l2.6-.5V60h-1.6a1 1 0 0 1-1-1zm2.6 5.7v-5.3h-1.2v5.3z"/></g><g class="f"><path class="b" d="M39.7 84.7a1 1 0 0 1 1-1h3.8V86h-1.3v-1h-2v8.4h2v-1h1.4v1.4a1 1 0 0 1-1 1h-2.9a1 1 0 0 1-1-1zM45.5 87.8a1 1 0 0 1 1-1h2a1 1 0 0 1 1 1v6a1 1 0 0 1-1 1h-2a1 1 0 0 1-1-1zm2.6 5.7v-5.2h-1.2v5.3zM50.5 83.7h1.4v9.8h1v1.4h-2.4zM53.8 90.4a1 1 0 0 1 1-1h1.7v-.6l-2.6-.5v-1.4l3 .6a1.3 1.3 0 0 1 1 1.2v6.2h-3a1 1 0 0 1-1-1zm2.6 3v-2.6h-1.2v2.7z"/></g><path d="M4.2 17.6H7V15h.6v2.6h2.7v.5H7.5V21h-.6v-3H4.2z" stroke="#fff" stroke-linecap="round" stroke-linejoin="round"/><g class="f"><path class="b" d="M218.4 38a1 1 0 0 1 1-1h2.5v-3.4h-2v1h-1.4v-1.4a1 1 0 0 1 1-1h3.8v5.3a1 1 0 0 1-1 1h-2.5V42h3.4v1.4h-4.8zM224.7 42h3.4v-3.5h-2.5a1 1 0 0 1-1-1v-4.3a1 1 0 0 1 1-1h3.8v10.3a1 1 0 0 1-1 1h-3.8zm3.4-5v-3.4H226v3.5zM232.1 32.2h2.4v11.2h-1.4v-9.8h-1zM241.3 30.8h1.4l-1.8 12.6h-1.4zM246.4 41h1.4v1h2v-3.5h-2.6v-1.4h2.6v-3.5h-2v1h-1.4v-1.4a1 1 0 0 1 1-1h3.8v10.3a1 1 0 0 1-1 1h-2.9a1 1 0 0 1-1-1zM252.7 33.2a1 1 0 0 1 1-1h3.8v10.3a1 1 0 0 1-1 1h-3a1 1 0 0 1-1-1zM256 42v-8.4h-2V42zM258.9 33.2a1 1 0 0 1 1-1h3.8v10.3a1 1 0 0 1-1 1h-2.9a1 1 0 0 1-1-1zm3.4 8.8v-8.4h-2V42z"/></g><g class="f"><path class="b" d="M278.4 32.2h1.4V42h3.4v1.4h-4.8zM285.5 32.2l.7 9.8h.6l.7-9.8h1.4l-.8 11.2H285l-.8-11.2zM290 42h1.4v1.4H290zM295.3 42h3.3v-3.5h-2.5a1 1 0 0 1-1-1v-4.3a1 1 0 0 1 1-1h3.8v10.3a1 1 0 0 1-1 1h-3.7zm3.3-5v-3.4h-2v3.5z"/></g></svg>